<svg xmlns="http://www.w3.org/2000/svg" width="45" height="45" viewBox="0 0 45 45">
  <g id="Group_86" data-name="Group 86" transform="translate(-667 -492)">
    <circle id="Ellipse_15" data-name="Ellipse 15" cx="22.5" cy="22.5" r="22.5" transform="translate(667 492)" fill="#fff"/>
    <path id="linkedin-in-brands" d="M6.718,27.122H.5V9.021H6.718ZM3.6,6.551A3.468,3.468,0,0,1,0,3.265,3.443,3.443,0,0,1,3.6.01a3.443,3.443,0,0,1,3.6,3.255A3.468,3.468,0,0,1,3.6,6.551Zm26.4,20.57H23.8V18.31c0-2.1-.047-4.793-3.235-4.793-3.235,0-3.731,2.282-3.731,4.642v8.963H10.616V9.021h5.968V11.49h.087a6.691,6.691,0,0,1,5.887-2.923c6.3,0,7.455,3.746,7.455,8.612v9.943Z" transform="translate(675 498.99)" fill="#0e1717"/>
  </g>
</svg>
