<svg xmlns="http://www.w3.org/2000/svg" width="45" height="45" viewBox="0 0 45 45">
  <g id="Group_119" data-name="Group 119" transform="translate(-1272 -4156)">
    <circle id="Ellipse_19" data-name="Ellipse 19" cx="22.5" cy="22.5" r="22.5" transform="translate(1272 4156)" fill="#fff"/>
    <path id="envelope-regular" d="M27.1,64H2.8A2.768,2.768,0,0,0,0,66.732V83.122a2.768,2.768,0,0,0,2.8,2.732H27.1a2.768,2.768,0,0,0,2.8-2.732V66.732A2.768,2.768,0,0,0,27.1,64Zm0,2.732v2.322c-1.309,1.039-3.4,2.655-7.86,6.061-.984.754-2.932,2.565-4.287,2.544-1.355.021-3.3-1.79-4.287-2.544C6.2,71.71,4.113,70.093,2.8,69.054V66.732ZM2.8,83.122V72.559c1.338,1.039,3.236,2.5,6.128,4.7,1.276.979,3.512,3.141,6.019,3.128,2.495.013,4.7-2.117,6.018-3.127,2.892-2.207,4.791-3.665,6.129-4.7V83.122Z" transform="translate(1280 4104)" fill="#0e1717"/>
  </g>
</svg>
