<svg xmlns="http://www.w3.org/2000/svg" width="35.473" height="34.425" viewBox="0 0 35.473 34.425">
  <path id="github-brands" d="M11.865,35.719c0,.142-.164.256-.372.256-.236.021-.4-.093-.4-.256,0-.142.164-.256.372-.256C11.679,35.441,11.865,35.555,11.865,35.719ZM9.641,35.4c-.05.142.093.306.308.349a.336.336,0,0,0,.443-.142c.043-.142-.093-.306-.308-.37a.368.368,0,0,0-.443.164Zm3.161-.121c-.207.05-.35.185-.329.349.021.142.207.235.422.185s.35-.185.329-.327S13.009,35.256,12.8,35.277ZM17.508,8A17.11,17.11,0,0,0,0,25.369,17.852,17.852,0,0,0,12.122,42.4c.915.164,1.237-.4,1.237-.861,0-.441-.021-2.876-.021-4.371,0,0-5.006,1.068-6.058-2.121,0,0-.815-2.071-1.988-2.605,0,0-1.638-1.118.114-1.1a3.778,3.778,0,0,1,2.761,1.837,3.791,3.791,0,0,0,5.214,1.488,3.949,3.949,0,0,1,1.144-2.4c-4-.441-8.031-1.018-8.031-7.866a5.382,5.382,0,0,1,1.688-4.193,6.7,6.7,0,0,1,.186-4.833C9.862,14.912,13.3,17.3,13.3,17.3a16.972,16.972,0,0,1,8.983,0s3.44-2.392,4.935-1.922a6.693,6.693,0,0,1,.186,4.833A5.522,5.522,0,0,1,29.251,24.4c0,6.869-4.212,7.417-8.21,7.866a4.2,4.2,0,0,1,1.216,3.3c0,2.4-.021,5.367-.021,5.951,0,.463.329,1.025,1.237.861a17.687,17.687,0,0,0,12-17.013C35.473,15.5,27.427,8,17.508,8ZM6.952,32.551c-.093.071-.072.235.05.37.114.114.279.164.372.071.093-.071.072-.235-.05-.37C7.209,32.508,7.044,32.458,6.952,32.551Zm-.772-.577c-.05.093.021.206.164.278a.213.213,0,0,0,.308-.05c.05-.093-.021-.206-.164-.278C6.344,31.882,6.229,31.9,6.179,31.974ZM8.5,34.508c-.114.093-.072.306.093.441.164.164.372.185.465.071.093-.093.05-.306-.093-.441C8.8,34.416,8.589,34.395,8.5,34.508Zm-.815-1.046c-.114.071-.114.256,0,.42s.308.235.4.164a.324.324,0,0,0,0-.441c-.1-.164-.286-.235-.4-.142Z" transform="translate(0 -8)" fill="#79b791"/>
</svg>
