<svg xmlns="http://www.w3.org/2000/svg" width="18.358" height="15.889" viewBox="0 0 18.358 15.889">
  <g id="like" transform="translate(0 -30)">
    <g id="Group_91" data-name="Group 91" transform="translate(0 30)">
      <path id="Path_4" data-name="Path 4" d="M13.482,30a4.4,4.4,0,0,0-2.715.92,6.089,6.089,0,0,0-1.588,1.873A6.089,6.089,0,0,0,7.591,30.92,4.4,4.4,0,0,0,4.876,30,4.927,4.927,0,0,0,0,35.186c0,3.194,2.615,5.379,6.575,8.687.672.562,1.434,1.2,2.227,1.878a.583.583,0,0,0,.755,0c.792-.679,1.554-1.316,2.227-1.878,3.959-3.308,6.574-5.493,6.574-8.687A4.927,4.927,0,0,0,13.482,30Z" transform="translate(0 -30)" fill="#edf4ed"/>
    </g>
  </g>
</svg>
