<svg xmlns="http://www.w3.org/2000/svg" width="32.878" height="29.573" viewBox="0 0 32.878 29.573">
  <path id="instagram-brands" d="M16.368,39.029c-4.665,0-8.428,3.385-8.428,7.582s3.763,7.582,8.428,7.582S24.8,50.808,24.8,46.611,21.033,39.029,16.368,39.029Zm0,12.511a5.236,5.236,0,0,1-5.479-4.929,5.231,5.231,0,0,1,5.479-4.929,5.231,5.231,0,0,1,5.479,4.929,5.236,5.236,0,0,1-5.479,4.929ZM27.106,38.719a1.977,1.977,0,1,1-1.966-1.768A1.871,1.871,0,0,1,27.106,38.719Zm5.582,1.795a8.285,8.285,0,0,0-2.655-6.2,10.424,10.424,0,0,0-6.887-2.389c-2.714-.139-10.848-.139-13.562,0A10.411,10.411,0,0,0,2.7,34.311a8.312,8.312,0,0,0-2.655,6.2c-.154,2.442-.154,9.76,0,12.2A8.285,8.285,0,0,0,2.7,58.9a10.438,10.438,0,0,0,6.887,2.389c2.714.139,10.848.139,13.562,0A10.355,10.355,0,0,0,30.033,58.9a8.339,8.339,0,0,0,2.655-6.2C32.842,50.267,32.842,42.956,32.688,40.514ZM29.182,55.328a5.3,5.3,0,0,1-3.125,2.811c-2.164.772-7.3.594-9.689.594s-7.533.172-9.689-.594a5.3,5.3,0,0,1-3.125-2.811c-.858-1.947-.66-6.566-.66-8.717s-.191-6.777.66-8.717a5.3,5.3,0,0,1,3.125-2.811c2.164-.772,7.3-.594,9.689-.594s7.533-.172,9.689.594a5.3,5.3,0,0,1,3.125,2.811c.858,1.947.66,6.566.66,8.717S30.04,53.388,29.182,55.328Z" transform="translate(0.075 -31.825)" fill="#79b791"/>
</svg>
