<svg xmlns="http://www.w3.org/2000/svg" width="32.878" height="29.558" viewBox="0 0 32.878 29.558">
  <path id="linkedin-in-brands" d="M7.359,29.568H.543V9.834H7.359ZM3.948,7.142A3.791,3.791,0,0,1,0,3.559,3.764,3.764,0,0,1,3.948.01,3.764,3.764,0,0,1,7.9,3.559,3.792,3.792,0,0,1,3.948,7.142ZM32.871,29.568h-6.8V19.962c0-2.289-.051-5.226-3.544-5.226-3.544,0-4.087,2.487-4.087,5.061v9.772H11.629V9.834h6.538v2.692h.1a7.34,7.34,0,0,1,6.449-3.187c6.9,0,8.167,4.084,8.167,9.389v10.84Z" transform="translate(0 -0.01)" fill="#79b791"/>
</svg>
