<svg xmlns="http://www.w3.org/2000/svg" width="27" height="20" viewBox="0 0 27 20">
  <path id="envelope-regular" d="M24.469,64H2.531A2.516,2.516,0,0,0,0,66.5v15A2.516,2.516,0,0,0,2.531,84H24.469A2.516,2.516,0,0,0,27,81.5v-15A2.516,2.516,0,0,0,24.469,64Zm0,2.5v2.125c-1.182.951-3.067,2.43-7.1,5.546-.888.69-2.647,2.348-3.871,2.328-1.224.02-2.984-1.638-3.871-2.328-4.029-3.116-5.915-4.6-7.1-5.546V66.5ZM2.531,81.5V71.833c1.208.951,2.922,2.284,5.534,4.3,1.153.9,3.171,2.874,5.435,2.862,2.253.012,4.246-1.937,5.434-2.862,2.612-2.02,4.326-3.354,5.534-4.3V81.5Z" transform="translate(0 -64)" fill="#79b791"/>
</svg>
