<svg xmlns="http://www.w3.org/2000/svg" width="39.878" height="22.636" viewBox="0 0 39.878 22.636">
  <path id="youtube-brands" d="M53.978,67.542a4.625,4.625,0,0,0-3.526-2.865C47.343,64,34.872,64,34.872,64s-12.47,0-15.58.677a4.625,4.625,0,0,0-3.526,2.865c-.833,2.527-.833,7.8-.833,7.8s0,5.272.833,7.8a4.576,4.576,0,0,0,3.526,2.819c3.11.677,15.58.677,15.58.677s12.47,0,15.58-.677a4.576,4.576,0,0,0,3.526-2.819c.833-2.527.833-7.8.833-7.8S54.811,70.069,53.978,67.542ZM30.794,80.128V70.554l10.423,4.787Z" transform="translate(-14.933 -64)" fill="#79b791"/>
</svg>
